<?xml version="1.0" encoding="UTF-8"?>
<svg xmlns="http://www.w3.org/2000/svg" viewBox="0 0 1000 500">
    <!-- Simplified world map paths -->
    <path d="M217,185l-5.7,1.1l-2.9,0.2l-3.5,2.5l-4.8,1.6l-2.9-0.5l-3.2,1.5h-4.6l-3.8-2l-3.5-0.9l-1.9,2.3v1.4l1.4,2.1v2.5l-2.4,1.1 l-0.5,2.9l-2.9,1.1l0.5,1.8l2.4,1.1l3.2-0.5l1.6,1.4l4.8,0.5l3.8-2.1l4.8-0.5l3.2-1.4l4.4,1.4l4.8,2.7l4,1.4l3.2-0.9l3.8,0.5l4,1.8 l2.4-0.5l3.2-2.1l3.5-1.4l4.4-0.5l3.5,1.1l2.9,1.4h4l3.5-0.9l4-2.1l2.9-0.5l3.5-2.5l4.8-1.6l2.9,0.5l3.2-1.5h4.6l3.8,2l3.5,0.9 l1.9-2.3v-1.4l-1.4-2.1v-2.5l2.4-1.1l0.5-2.9l2.9-1.1l-0.5-1.8l-2.4-1.1l-3.2,0.5l-1.6-1.4l-4.8-0.5l-3.8,2.1l-4.8,0.5l-3.2,1.4 l-4.4-1.4l-4.8-2.7l-4-1.4l-3.2,0.9l-3.8-0.5l-4-1.8l-2.4,0.5l-3.2,2.1l-3.5,1.4l-4.4,0.5l-3.5-1.1l-2.9-1.4h-4l-3.5,0.9l-4,2.1 L217,185z"/>
    <!-- Add more paths for other continents -->
</svg> 